<svg width="31" height="32" viewBox="0 0 31 32" fill="none" xmlns="http://www.w3.org/2000/svg">
<path d="M12.7428 13.8556H5.13136C4.99383 13.8556 4.86193 13.801 4.76468 13.7037C4.66743 13.6065 4.61279 13.4746 4.61279 13.337V5.7256C4.61279 5.58807 4.66743 5.45617 4.76468 5.35892C4.86193 5.26167 4.99383 5.20703 5.13136 5.20703H12.7428C12.8803 5.20703 13.0122 5.26167 13.1095 5.35892C13.2067 5.45617 13.2614 5.58807 13.2614 5.7256V13.337C13.2614 13.4746 13.2067 13.6065 13.1095 13.7037C13.0122 13.801 12.8803 13.8556 12.7428 13.8556ZM25.4285 13.8556H17.8171C17.6795 13.8556 17.5476 13.801 17.4504 13.7037C17.3531 13.6065 17.2985 13.4746 17.2985 13.337V5.7256C17.2985 5.58807 17.3531 5.45617 17.4504 5.35892C17.5476 5.26167 17.6795 5.20703 17.8171 5.20703H25.4285C25.566 5.20703 25.6979 5.26167 25.7952 5.35892C25.8924 5.45617 25.9471 5.58807 25.9471 5.7256V13.337C25.9471 13.4746 25.8924 13.6065 25.7952 13.7037C25.6979 13.801 25.566 13.8556 25.4285 13.8556ZM12.7428 26.5413H5.13136C4.99383 26.5413 4.86193 26.4867 4.76468 26.3894C4.66743 26.2922 4.61279 26.1603 4.61279 26.0227V18.4113C4.61279 18.2738 4.66743 18.1419 4.76468 18.0446C4.86193 17.9474 4.99383 17.8927 5.13136 17.8927H12.7428C12.8803 17.8927 13.0122 17.9474 13.1095 18.0446C13.2067 18.1419 13.2614 18.2738 13.2614 18.4113V26.0227C13.2614 26.1603 13.2067 26.2922 13.1095 26.3894C13.0122 26.4867 12.8803 26.5413 12.7428 26.5413ZM25.4285 26.5413H17.8171C17.6795 26.5413 17.5476 26.4867 17.4504 26.3894C17.3531 26.2922 17.2985 26.1603 17.2985 26.0227V18.4113C17.2985 18.2738 17.3531 18.1419 17.4504 18.0446C17.5476 17.9474 17.6795 17.8927 17.8171 17.8927H25.4285C25.566 17.8927 25.6979 17.9474 25.7952 18.0446C25.8924 18.1419 25.9471 18.2738 25.9471 18.4113V26.0227C25.9471 26.1603 25.8924 26.2922 25.7952 26.3894C25.6979 26.4867 25.566 26.5413 25.4285 26.5413Z" stroke="white" stroke-width="1.5"/>
</svg>
