<svg width="37" height="37" viewBox="0 0 37 37" fill="none" xmlns="http://www.w3.org/2000/svg">
<g id="location-pin-svgrepo-com (2) 1" clip-path="url(#clip0_642_261)">
<path id="Vector" d="M18.5 0C10.8375 0 4.62497 6.21253 4.62497 13.875C4.62497 16.8922 5.61414 19.6609 7.25833 21.9283C7.28781 21.9826 7.29244 22.0433 7.32597 22.0954L16.576 35.9704C17.0049 36.6138 17.7276 37 18.5 37C19.2723 37 19.995 36.6138 20.424 35.9704L29.674 22.0954C29.7081 22.0433 29.7121 21.9826 29.7416 21.9283C31.3858 19.6609 32.375 16.8922 32.375 13.875C32.375 6.21253 26.1624 0 18.5 0ZM18.5 18.5C15.9458 18.5 13.875 16.4292 13.875 13.875C13.875 11.3208 15.9458 9.25 18.5 9.25C21.0541 9.25 23.125 11.3208 23.125 13.875C23.125 16.4292 21.0541 18.5 18.5 18.5Z" fill="white"/>
</g>
<defs>
<clipPath id="clip0_642_261">
<rect width="37" height="37" fill="white"/>
</clipPath>
</defs>
</svg>
