<svg width="294" height="285" viewBox="0 0 294 285" fill="none" xmlns="http://www.w3.org/2000/svg">
<g id="Scoop">
<g id="Vector" filter="url(#filter0_f_642_215)">
<path d="M150.333 134.675C153.423 137.765 153.609 142.771 155.189 146.576C156.822 150.523 160.169 154.222 160.169 158.424C160.169 162.627 156.822 166.326 155.189 170.272C153.618 174.078 153.432 179.075 150.333 182.173C147.235 185.272 142.238 185.449 138.432 187.029C134.486 188.663 130.787 192.009 126.584 192.009C122.382 192.009 118.683 188.663 114.736 187.029C110.931 185.458 105.934 185.272 102.835 182.173C99.7451 179.083 99.5597 174.078 97.9794 170.272C96.399 166.467 93 162.627 93 158.424C93 154.222 96.3461 150.523 97.9794 146.576C99.5509 142.771 99.7363 137.774 102.835 134.675C105.925 131.585 110.931 131.4 114.736 129.819C118.683 128.186 122.382 124.84 126.584 124.84C130.787 124.84 134.486 128.186 138.432 129.819C142.238 131.391 147.235 131.576 150.333 134.675Z" fill="url(#paint0_linear_642_215)"/>
</g>
<g id="Vector_2" filter="url(#filter1_f_642_215)">
<path d="M200.312 113.963C200.41 116.797 198.291 119.243 197.364 121.741C196.393 124.328 196.348 127.559 194.494 129.546C192.64 131.532 189.418 131.806 186.911 132.954C184.483 134.057 182.196 136.344 179.362 136.45C176.528 136.556 174.083 134.428 171.584 133.501C169.085 132.574 165.766 132.486 163.779 130.632C161.793 128.778 161.519 125.555 160.372 123.048C159.268 120.62 156.981 118.333 156.875 115.499C156.778 112.665 158.897 110.22 159.824 107.721C160.795 105.134 160.839 101.903 162.694 99.9167C164.548 97.9302 167.77 97.6565 170.277 96.5088C172.696 95.3964 174.992 93.1098 177.817 93.0038C180.642 92.8979 183.097 95.0256 185.595 95.9526C188.094 96.8796 191.413 96.9679 193.4 98.8219C195.386 100.676 195.66 103.898 196.808 106.406C197.911 108.834 200.198 111.12 200.304 113.954L200.312 113.963Z" fill="url(#paint1_linear_642_215)"/>
</g>
<g id="Group 2">
<path id="Vector_3" d="M150.333 134.675C153.423 137.765 153.609 142.771 155.189 146.576C156.822 150.523 160.169 154.222 160.169 158.424C160.169 162.627 156.822 166.326 155.189 170.272C153.618 174.078 153.432 179.075 150.333 182.173C147.235 185.272 142.238 185.449 138.432 187.029C134.486 188.663 130.787 192.009 126.584 192.009C122.382 192.009 118.683 188.663 114.736 187.029C110.931 185.458 105.934 185.272 102.835 182.173C99.7451 179.083 99.5597 174.078 97.9794 170.272C96.399 166.467 93 162.627 93 158.424C93 154.222 96.3461 150.523 97.9794 146.576C99.5509 142.771 99.7363 137.774 102.835 134.675C105.925 131.585 110.931 131.4 114.736 129.819C118.683 128.186 122.382 124.84 126.584 124.84C130.787 124.84 134.486 128.186 138.432 129.819C142.238 131.391 147.235 131.576 150.333 134.675Z" fill="url(#paint2_linear_642_215)"/>
<path id="Vector_4" d="M200.312 113.963C200.41 116.797 198.291 119.243 197.364 121.741C196.393 124.328 196.348 127.559 194.494 129.546C192.64 131.532 189.418 131.806 186.911 132.954C184.483 134.057 182.196 136.344 179.362 136.45C176.528 136.556 174.083 134.428 171.584 133.501C169.085 132.574 165.766 132.486 163.779 130.632C161.793 128.778 161.519 125.555 160.372 123.048C159.268 120.62 156.981 118.333 156.875 115.499C156.778 112.665 158.897 110.22 159.824 107.721C160.795 105.134 160.839 101.903 162.694 99.9167C164.548 97.9302 167.77 97.6565 170.277 96.5088C172.696 95.3964 174.992 93.1098 177.817 93.0038C180.642 92.8979 183.097 95.0256 185.595 95.9526C188.094 96.8796 191.413 96.9679 193.4 98.8219C195.386 100.676 195.66 103.898 196.808 106.406C197.911 108.834 200.198 111.12 200.304 113.954L200.312 113.963Z" fill="url(#paint3_linear_642_215)"/>
<g id="Vector_5" filter="url(#filter2_b_642_215)">
<path d="M191.758 173.68L183.565 165.487C195.572 149.119 194.185 125.988 179.38 111.191C163.038 94.849 136.543 94.849 120.201 111.191C103.859 127.533 103.859 154.028 120.201 170.361C134.574 184.734 156.814 186.455 173.076 175.534L181.49 183.948C184.324 186.782 188.924 186.782 191.758 183.948C194.592 181.114 194.592 176.514 191.758 173.68Z" fill="url(#paint4_linear_642_215)"/>
<path d="M182.96 165.044L182.579 165.563L183.034 166.018L191.227 174.211C193.768 176.752 193.768 180.877 191.227 183.418C188.686 185.959 184.561 185.959 182.02 183.418L173.606 175.004L173.17 174.568L172.658 174.912C156.687 185.637 134.846 183.945 120.731 169.83L120.731 169.83C104.683 153.79 104.682 127.77 120.731 111.721C136.78 95.6722 162.8 95.6722 178.849 111.721L178.85 111.721C193.389 126.252 194.751 148.969 182.96 165.044Z" stroke="url(#paint5_linear_642_215)" stroke-width="1.5"/>
</g>
</g>
</g>
<defs>
<filter id="filter0_f_642_215" x="0" y="31.84" width="253.169" height="253.169" filterUnits="userSpaceOnUse" color-interpolation-filters="sRGB">
<feFlood flood-opacity="0" result="BackgroundImageFix"/>
<feBlend mode="normal" in="SourceGraphic" in2="BackgroundImageFix" result="shape"/>
<feGaussianBlur stdDeviation="46.5" result="effect1_foregroundBlur_642_215"/>
</filter>
<filter id="filter1_f_642_215" x="63.8722" y="0" width="229.444" height="229.454" filterUnits="userSpaceOnUse" color-interpolation-filters="sRGB">
<feFlood flood-opacity="0" result="BackgroundImageFix"/>
<feBlend mode="normal" in="SourceGraphic" in2="BackgroundImageFix" result="shape"/>
<feGaussianBlur stdDeviation="46.5" result="effect1_foregroundBlur_642_215"/>
</filter>
<filter id="filter2_b_642_215" x="89.9448" y="80.9345" width="121.938" height="123.139" filterUnits="userSpaceOnUse" color-interpolation-filters="sRGB">
<feFlood flood-opacity="0" result="BackgroundImageFix"/>
<feGaussianBlur in="BackgroundImageFix" stdDeviation="9"/>
<feComposite in2="SourceAlpha" operator="in" result="effect1_backgroundBlur_642_215"/>
<feBlend mode="normal" in="SourceGraphic" in2="effect1_backgroundBlur_642_215" result="shape"/>
</filter>
<linearGradient id="paint0_linear_642_215" x1="142.282" y1="132.221" x2="111.099" y2="184.275" gradientUnits="userSpaceOnUse">
<stop stop-color="#10994D"/>
<stop offset="1" stop-color="#00FF79"/>
</linearGradient>
<linearGradient id="paint1_linear_642_215" x1="197.388" y1="109.179" x2="159.648" y2="120.074" gradientUnits="userSpaceOnUse">
<stop stop-color="#10E4E2"/>
<stop offset="1" stop-color="#00FF79"/>
</linearGradient>
<linearGradient id="paint2_linear_642_215" x1="142.282" y1="132.221" x2="111.099" y2="184.275" gradientUnits="userSpaceOnUse">
<stop stop-color="#10994D"/>
<stop offset="1" stop-color="#00FF79"/>
</linearGradient>
<linearGradient id="paint3_linear_642_215" x1="197.388" y1="109.179" x2="159.648" y2="120.074" gradientUnits="userSpaceOnUse">
<stop stop-color="#10E4E2"/>
<stop offset="1" stop-color="#00FF79"/>
</linearGradient>
<linearGradient id="paint4_linear_642_215" x1="112.796" y1="181.154" x2="190.089" y2="104.926" gradientUnits="userSpaceOnUse">
<stop stop-color="white" stop-opacity="0.2"/>
<stop offset="1" stop-color="white" stop-opacity="0.49"/>
</linearGradient>
<linearGradient id="paint5_linear_642_215" x1="114.011" y1="105.788" x2="186.912" y2="182.661" gradientUnits="userSpaceOnUse">
<stop stop-color="white"/>
<stop offset="1" stop-color="white" stop-opacity="0"/>
</linearGradient>
</defs>
</svg>
