<svg width="39" height="40" viewBox="0 0 39 40" fill="none" xmlns="http://www.w3.org/2000/svg">
<path d="M21.2184 3.65707L22.984 1.887V0.912109H19.4978H16.0161V1.887L17.7816 3.65707V15.8814L19.4978 20.4144L21.2184 15.8814V3.65707Z" fill="white"/>
<path d="M2.74046 18.6938L0.97488 16.9282H0V20.4145V23.9007H0.97488L2.74046 22.1306H14.9692L19.4978 20.4145L14.9692 18.6938H2.74046Z" fill="white"/>
<path d="M17.7816 37.1718L16.0161 38.9374V39.9123H19.4978H22.984V38.9374L21.2184 37.1718V24.9476L19.4978 20.4146L17.7816 24.9476V37.1718Z" fill="white"/>
<path d="M36.2551 22.1306L38.0252 23.9007H39.0001V20.4145V16.9282H38.0252L36.2551 18.6938H24.0309L19.4979 20.4145L24.0309 22.1306H36.2551Z" fill="white"/>
<path d="M32.5623 9.78036H35.0646L35.752 9.08851L33.2901 6.62658L30.8236 4.16016L30.1363 4.84752V7.34988L21.4881 15.9936L19.4979 20.4143L23.9186 18.4241L32.5623 9.78036Z" fill="white"/>
<path d="M8.86376 7.34988V4.84752L8.1764 4.16016L5.70998 6.62658L3.24805 9.08851L3.93541 9.78036H6.43328L15.0815 18.4241L19.4977 20.4143L17.512 15.9936L8.86376 7.34988Z" fill="white"/>
<path d="M6.43328 31.0485H3.93541L3.24805 31.7358L5.70998 34.2023L8.1764 36.6687L8.86376 35.9768V33.4789L17.512 24.8352L19.4977 20.4146L15.0815 22.4048L6.43328 31.0485Z" fill="white"/>
<path d="M30.1363 33.4789V35.9768L30.8236 36.6687L33.2901 34.2023L35.752 31.7358L35.0646 31.0485H32.5623L23.9186 22.4048L19.4979 20.4146L21.4881 24.8352L30.1363 33.4789Z" fill="white"/>
</svg>
