<svg width="11" height="14" viewBox="0 0 11 14" fill="none" xmlns="http://www.w3.org/2000/svg">
<mask id="path-1-outside-1_87_514" maskUnits="userSpaceOnUse" x="0.167479" y="-1.19209e-07" width="10" height="14" fill="black">
<rect fill="white" x="0.167479" y="-1.19209e-07" width="10" height="14"/>
<path fill-rule="evenodd" clip-rule="evenodd" d="M9.13433 6.47915C9.06803 6.13672 8.90229 5.80973 8.63709 5.54454C8.63676 5.5442 8.63642 5.54387 8.63608 5.54353L4.62294 1.53039C3.91576 0.823204 2.76918 0.823204 2.062 1.53039C1.35481 2.23757 1.35481 3.38415 2.062 4.09134C3.57176 5.6011 3.57176 8.04892 2.062 9.55869C1.35481 10.2659 1.35481 11.4124 2.062 12.1196C2.76918 12.8268 3.91576 12.8268 4.62294 12.1196L8.63709 8.10549C9.07908 7.66349 9.24483 7.04987 9.13433 6.47915Z"/>
</mask>
<g filter="url(#filter0_i_87_514)">
<path fill-rule="evenodd" clip-rule="evenodd" d="M9.13433 6.47915C9.06803 6.13672 8.90229 5.80973 8.63709 5.54454C8.63676 5.5442 8.63642 5.54387 8.63608 5.54353L4.62294 1.53039C3.91576 0.823204 2.76918 0.823204 2.062 1.53039C1.35481 2.23757 1.35481 3.38415 2.062 4.09134C3.57176 5.6011 3.57176 8.04892 2.062 9.55869C1.35481 10.2659 1.35481 11.4124 2.062 12.1196C2.76918 12.8268 3.91576 12.8268 4.62294 12.1196L8.63709 8.10549C9.07908 7.66349 9.24483 7.04987 9.13433 6.47915Z" fill="#03A9F1"/>
</g>
<path d="M8.63709 5.54454L9.3442 4.83743L9.34401 4.83724L8.63709 5.54454ZM9.13433 6.47915L8.15256 6.66923L9.13433 6.47915ZM8.63608 5.54353L7.92898 6.25064L7.92942 6.25108L8.63608 5.54353ZM4.62294 1.53039L5.33005 0.823283V0.823283L4.62294 1.53039ZM2.062 1.53039L1.35489 0.823282V0.823282L2.062 1.53039ZM2.062 12.1196L1.35489 12.8267L1.35489 12.8267L2.062 12.1196ZM4.62294 12.1196L5.33005 12.8267L4.62294 12.1196ZM8.63709 8.10549L9.3442 8.81259H9.3442L8.63709 8.10549ZM7.92998 6.25164C8.04972 6.37138 8.123 6.51652 8.15256 6.66923L10.1161 6.28907C10.0131 5.75692 9.75485 5.24809 9.3442 4.83743L7.92998 6.25164ZM7.92942 6.25108C7.92967 6.25133 7.92992 6.25158 7.93017 6.25183L9.34401 4.83724C9.34359 4.83682 9.34317 4.8364 9.34275 4.83599L7.92942 6.25108ZM3.91584 2.2375L7.92898 6.25064L9.34319 4.83642L5.33005 0.823283L3.91584 2.2375ZM2.7691 2.2375C3.08577 1.92083 3.59917 1.92083 3.91584 2.2375L5.33005 0.823283C4.23234 -0.274428 2.4526 -0.274427 1.35489 0.823282L2.7691 2.2375ZM2.7691 3.38423C2.45244 3.06757 2.45244 2.55416 2.7691 2.2375L1.35489 0.823282C0.25718 1.92099 0.257179 3.70073 1.35489 4.79844L2.7691 3.38423ZM2.7691 11.4125C2.45244 11.0959 2.45244 10.5825 2.7691 10.2658L1.35489 8.85158C0.257181 9.94929 0.257181 11.729 1.35489 12.8267L2.7691 11.4125ZM3.91584 11.4125C3.59918 11.7292 3.08577 11.7292 2.7691 11.4125L1.35489 12.8267C2.4526 13.9245 4.23234 13.9245 5.33005 12.8267L3.91584 11.4125ZM7.92998 7.39838L3.91584 11.4125L5.33005 12.8267L9.3442 8.81259L7.92998 7.39838ZM8.15256 6.66923C8.20262 6.92775 8.12724 7.20112 7.92998 7.39838L9.3442 8.81259C10.0309 8.12586 10.287 7.17198 10.1161 6.28907L8.15256 6.66923ZM1.35489 4.79844C2.47413 5.91769 2.47413 7.73234 1.35489 8.85158L2.76911 10.2658C4.6694 8.3655 4.66939 5.28452 2.7691 3.38423L1.35489 4.79844Z" fill="#333030" fill-opacity="0.5" mask="url(#path-1-outside-1_87_514)"/>
<defs>
<filter id="filter0_i_87_514" x="0.531616" y="0" width="11.6358" height="15.6499" filterUnits="userSpaceOnUse" color-interpolation-filters="sRGB">
<feFlood flood-opacity="0" result="BackgroundImageFix"/>
<feBlend mode="normal" in="SourceGraphic" in2="BackgroundImageFix" result="shape"/>
<feColorMatrix in="SourceAlpha" type="matrix" values="0 0 0 0 0 0 0 0 0 0 0 0 0 0 0 0 0 0 127 0" result="hardAlpha"/>
<feOffset dx="2" dy="2"/>
<feGaussianBlur stdDeviation="2"/>
<feComposite in2="hardAlpha" operator="arithmetic" k2="-1" k3="1"/>
<feColorMatrix type="matrix" values="0 0 0 0 0 0 0 0 0 0 0 0 0 0 0 0 0 0 0.7 0"/>
<feBlend mode="normal" in2="shape" result="effect1_innerShadow_87_514"/>
</filter>
</defs>
</svg>
