<svg width="17" height="17" viewBox="0 0 17 17" fill="none" xmlns="http://www.w3.org/2000/svg">
<path d="M5.28027 13.0314L3.44693 12.6314C3.28027 12.5981 3.14693 12.5119 3.04693 12.3728C2.94693 12.2341 2.90804 12.0814 2.93027 11.9148L3.1136 10.0314L1.8636 8.5981C1.75249 8.47588 1.69693 8.33144 1.69693 8.16477C1.69693 7.9981 1.75249 7.85366 1.8636 7.73144L3.1136 6.2981L2.93027 4.41477C2.90804 4.2481 2.94693 4.09544 3.04693 3.95677C3.14693 3.81766 3.28027 3.73144 3.44693 3.6981L5.28027 3.2981L6.24693 1.66477C6.33582 1.52033 6.45804 1.42588 6.6136 1.38144C6.76915 1.33699 6.92471 1.34255 7.08027 1.3981L8.8136 2.13144L10.5469 1.3981C10.7025 1.34255 10.858 1.33699 11.0136 1.38144C11.1692 1.42588 11.2914 1.52033 11.3803 1.66477L12.3469 3.2981L14.1803 3.6981C14.3469 3.73144 14.4803 3.81766 14.5803 3.95677C14.6803 4.09544 14.7192 4.2481 14.6969 4.41477L14.5136 6.2981L15.7636 7.73144C15.8747 7.85366 15.9303 7.9981 15.9303 8.16477C15.9303 8.33144 15.8747 8.47588 15.7636 8.5981L14.5136 10.0314L14.6969 11.9148C14.7192 12.0814 14.6803 12.2341 14.5803 12.3728C14.4803 12.5119 14.3469 12.5981 14.1803 12.6314L12.3469 13.0314L11.3803 14.6648C11.2914 14.8092 11.1692 14.9037 11.0136 14.9481C10.858 14.9925 10.7025 14.987 10.5469 14.9314L8.8136 14.1981L7.08027 14.9314C6.92471 14.987 6.76915 14.9925 6.6136 14.9481C6.45804 14.9037 6.33582 14.8092 6.24693 14.6648L5.28027 13.0314ZM7.64693 10.0648C7.76915 10.187 7.92471 10.2481 8.1136 10.2481C8.30249 10.2481 8.45804 10.187 8.58027 10.0648L11.4136 7.23144C11.5469 7.0981 11.6136 6.93966 11.6136 6.7561C11.6136 6.57299 11.5469 6.41477 11.4136 6.28144C11.2803 6.1481 11.122 6.08144 10.9389 6.08144C10.7554 6.08144 10.5969 6.1481 10.4636 6.28144L8.1136 8.63144L7.14693 7.68144C7.0136 7.55921 6.85538 7.50077 6.67227 7.5061C6.48871 7.51188 6.33582 7.57588 6.2136 7.6981C6.09138 7.82033 6.03027 7.97588 6.03027 8.16477C6.03027 8.35366 6.09138 8.50921 6.2136 8.63144L7.64693 10.0648Z" fill="#A471F6"/>
</svg>
