<svg width="20" height="20" viewBox="0 0 20 20" fill="none" xmlns="http://www.w3.org/2000/svg">
<path d="M5.58342 16.0834L3.29175 15.5834C3.08341 15.5418 2.91675 15.434 2.79175 15.2601C2.66675 15.0868 2.61814 14.8959 2.64591 14.6876L2.87508 12.3334L1.31258 10.5418C1.17369 10.389 1.10425 10.2084 1.10425 10.0001C1.10425 9.79176 1.17369 9.6112 1.31258 9.45842L2.87508 7.66676L2.64591 5.31259C2.61814 5.10426 2.66675 4.91342 2.79175 4.74009C2.91675 4.5662 3.08341 4.45842 3.29175 4.41676L5.58342 3.91676L6.79175 1.87509C6.90286 1.69453 7.05564 1.57648 7.25008 1.52092C7.44453 1.46537 7.63897 1.47231 7.83342 1.54176L10.0001 2.45842L12.1667 1.54176C12.3612 1.47231 12.5556 1.46537 12.7501 1.52092C12.9445 1.57648 13.0973 1.69453 13.2084 1.87509L14.4167 3.91676L16.7084 4.41676C16.9167 4.45842 17.0834 4.5662 17.2084 4.74009C17.3334 4.91342 17.382 5.10426 17.3542 5.31259L17.1251 7.66676L18.6876 9.45842C18.8265 9.6112 18.8959 9.79176 18.8959 10.0001C18.8959 10.2084 18.8265 10.389 18.6876 10.5418L17.1251 12.3334L17.3542 14.6876C17.382 14.8959 17.3334 15.0868 17.2084 15.2601C17.0834 15.434 16.9167 15.5418 16.7084 15.5834L14.4167 16.0834L13.2084 18.1251C13.0973 18.3056 12.9445 18.4237 12.7501 18.4793C12.5556 18.5348 12.3612 18.5279 12.1667 18.4584L10.0001 17.5418L7.83342 18.4584C7.63897 18.5279 7.44453 18.5348 7.25008 18.4793C7.05564 18.4237 6.90286 18.3056 6.79175 18.1251L5.58342 16.0834ZM8.54175 12.3751C8.69453 12.5279 8.88897 12.6043 9.12508 12.6043C9.36119 12.6043 9.55564 12.5279 9.70842 12.3751L13.2501 8.83342C13.4167 8.66676 13.5001 8.4687 13.5001 8.23926C13.5001 8.01037 13.4167 7.81259 13.2501 7.64592C13.0834 7.47926 12.8856 7.39592 12.6567 7.39592C12.4273 7.39592 12.2292 7.47926 12.0626 7.64592L9.12508 10.5834L7.91675 9.39592C7.75008 9.24315 7.5523 9.17009 7.32342 9.17676C7.09397 9.18398 6.90286 9.26398 6.75008 9.41676C6.5973 9.56954 6.52092 9.76398 6.52092 10.0001C6.52092 10.2362 6.5973 10.4306 6.75008 10.5834L8.54175 12.3751Z" fill="#0FC5FF"/>
</svg>
